<svg width="50" height="47" viewBox="0 0 50 47" fill="none" xmlns="http://www.w3.org/2000/svg">
<path d="M25.0004 8.61052L22.7597 6.30127C17.5002 0.880616 7.85616 2.75121 4.3748 9.56619C2.74038 12.7716 2.37162 17.3995 5.35608 23.3058C8.23117 28.9928 14.2126 35.8046 25.0004 43.2243C35.7883 35.8046 41.7666 28.9928 44.6448 23.3058C47.6292 17.3964 47.2636 12.7716 45.6261 9.56619C42.1447 2.75121 32.5007 0.877483 27.2411 6.29813L25.0004 8.61052ZM25.0004 47C-22.9167 15.2532 10.2469 -9.52515 24.4504 3.58154C24.6379 3.75387 24.8223 3.93247 25.0004 4.11734C25.1768 3.93264 25.3602 3.75495 25.5504 3.58467C39.7509 -9.53142 72.9175 15.25 25.0004 47Z" fill="black"/>
</svg>