<svg width="50" height="45" viewBox="0 0 50 45" fill="none" xmlns="http://www.w3.org/2000/svg">
<path fill-rule="evenodd" clip-rule="evenodd" d="M8.54768 0.59665C10.5738 0.1463 12.987 0 15.7776 0H19.8211C22.3284 0 24.6698 1.25325 26.0606 3.33975L28.0915 6.38675C28.5552 7.0822 29.3356 7.5 30.1714 7.5H42.808C46.8012 7.5 50.0377 10.6529 49.9997 14.713C49.9542 19.548 49.9924 24.3847 49.9924 29.22C49.9924 32.011 49.8462 34.4245 49.3958 36.451C48.9393 38.506 48.1375 40.3127 46.7217 41.7287C45.3059 43.1447 43.4994 43.9467 41.4447 44.4032C39.4185 44.8537 37.0054 45 34.2148 45H15.7776C12.987 45 10.5738 44.8537 8.54768 44.4032C6.49312 43.9467 4.68649 43.1447 3.2707 41.7287C1.85494 40.3127 1.05317 38.506 0.59656 36.451C0.146278 34.4245 0 32.011 0 29.22V15.78C0 12.9889 0.146278 10.5755 0.59656 8.54897C1.05317 6.4941 1.85494 4.6872 3.2707 3.2712C4.68649 1.85522 6.49312 1.05333 8.54768 0.59665ZM36.7622 18.2323C37.7383 19.2085 37.7383 20.7915 36.7622 21.7677L24.43 34.1017C23.3622 35.1697 21.631 35.1697 20.5631 34.1017L15.7298 29.2677C14.7537 28.2915 14.7537 26.7085 15.7298 25.7323C16.706 24.756 18.2887 24.756 19.2649 25.7323L22.4966 28.9645L33.2272 18.2323C34.2033 17.2559 35.7861 17.2559 36.7622 18.2323Z" fill="black"/>
</svg>
