<svg width="40" height="50" viewBox="0 0 40 50" fill="none" xmlns="http://www.w3.org/2000/svg">
<path fill-rule="evenodd" clip-rule="evenodd" d="M10 7.5V15.0104C8.7552 15.0281 7.6426 15.076 6.68055 15.2053C5.04175 15.4257 3.47088 15.9225 2.19673 17.1967C0.922555 18.4709 0.425706 20.0417 0.205381 21.6805C-0.000218935 23.2097 -0.000118882 25.1192 6.11789e-06 27.3355V37.6645C-0.000118882 39.8807 -0.000218935 41.7902 0.205381 43.3195C0.425706 44.9582 0.922555 46.5292 2.19673 47.8032C3.47088 49.0775 5.04175 49.5742 6.68055 49.7947C8.20968 50.0002 10.1192 50.0002 12.3354 50H27.6647C29.8807 50.0002 31.7902 50.0002 33.3195 49.7947C34.9582 49.5742 36.5292 49.0775 37.8032 47.8032C39.0775 46.5292 39.5742 44.9582 39.7947 43.3195C40.0002 41.7902 40.0002 39.8807 40 37.6645V27.3355C40.0002 25.1192 40.0002 23.2097 39.7947 21.6805C39.5742 20.0417 39.0775 18.4709 37.8032 17.1967C36.5292 15.9225 34.9582 15.4257 33.3195 15.2054C32.3575 15.076 31.2447 15.0281 30 15.0104V7.5C30 3.35787 26.6422 0 22.5 0H17.5C13.3579 0 10 3.35787 10 7.5ZM17.5 5C16.1192 5 15 6.1193 15 7.5V15H25V7.5C25 6.1193 23.8807 5 22.5 5H17.5ZM20 27.5C17.2385 27.5 15 29.7385 15 32.5C15 35.2615 17.2385 37.5 20 37.5C22.7615 37.5 25 35.2615 25 32.5C25 29.7385 22.7615 27.5 20 27.5Z" fill="black"/>
</svg>